<?xml version="1.0" standalone="no"?><!DOCTYPE svg PUBLIC "-//W3C//DTD SVG 1.1//EN" "http://www.w3.org/Graphics/SVG/1.1/DTD/svg11.dtd"><svg t="1507952143188" class="icon" style="" viewBox="0 0 1024 1024" version="1.1" xmlns="http://www.w3.org/2000/svg" p-id="2378" xmlns:xlink="http://www.w3.org/1999/xlink" width="200" height="200"><defs><style type="text/css"></style></defs><path d="M503.04 79.36C317.44 79.36 166.272 228.224 166.272 411.008c0 81.28 54.336 213.504 141.76 344.96 38.08 57.216 79.232 109.184 115.904 146.304 40.448 40.96 67.392 55.488 79.104 55.488 11.712 0 38.656-14.592 79.104-55.488 36.672-37.12 77.824-89.088 115.84-146.304 87.488-131.456 141.824-263.68 141.824-344.96 0-182.784-151.04-331.52-336.768-331.52z m0 916.608c-27.072 0-61.824-21.888-106.24-66.88-38.4-38.784-81.28-92.8-120.64-151.936C183.36 637.632 128 500.736 128 410.88 128 207.04 296.256 41.152 503.04 41.152c206.784 0 375.04 165.888 375.04 369.792 0 89.792-55.424 226.688-148.16 366.208-39.424 59.2-82.24 113.152-120.576 151.936-44.48 44.992-79.232 66.88-106.24 66.88z" fill="#1296db" p-id="2379"></path><path d="M503.04 270.848c-80.512 0-146.048 64.384-146.048 143.616 0 79.232 65.536 143.68 146.048 143.68 38.72 0 75.328-15.616 103.168-43.904a147.2 147.2 0 0 0 42.88-103.552c0-78.464-64.128-139.84-146.048-139.84z m0 325.504c-101.632 0-184.32-81.6-184.32-181.888 0-100.288 82.688-181.888 184.32-181.888 49.28 0 95.488 18.112 129.984 51.072 35.072 33.408 54.4 78.528 54.4 127.04 0 48.768-19.2 95.04-53.952 130.368a181.952 181.952 0 0 1-130.432 55.296z" fill="#1296db" p-id="2380"></path></svg>