<?xml version="1.0" standalone="no"?><!DOCTYPE svg PUBLIC "-//W3C//DTD SVG 1.1//EN" "http://www.w3.org/Graphics/SVG/1.1/DTD/svg11.dtd"><svg t="1504837839424" class="icon" style="" viewBox="0 0 1024 1024" version="1.1" xmlns="http://www.w3.org/2000/svg" p-id="2375" xmlns:xlink="http://www.w3.org/1999/xlink" width="200" height="200"><defs><style type="text/css"></style></defs><path d="M895.591445 397.199371c-11.30344 0-20.466124 9.162684-20.466124 20.466124v451.41004c0 1.952468-1.820462 3.541663-4.059456 3.541663H123.613342c-2.238994 0-4.059456-1.589195-4.059456-3.541663V181.882444c0-1.952468 1.821485-3.541663 4.059456-3.541663h514.046613c11.30344 0 20.466124-9.163707 20.466124-20.466124s-9.162684-20.466124-20.466124-20.466124H123.613342c-24.809035 0-44.991704 19.951401-44.991703 44.473911v687.193091c0 24.523533 20.183691 44.473911 44.991703 44.47391h747.452523c24.808012 0 44.991704-19.950378 44.991704-44.47391V417.665495c0-11.30344-9.162684-20.466124-20.466124-20.466124z" fill="#26a2ff" p-id="2376"></path><path d="M930.900625 169.685657l-54.261834-54.260811c-8.43102-8.43102-19.774369-13.074783-31.942503-13.074783-12.772908 0-25.402553 5.302773-34.650171 14.55039l-34.233686 34.233686c-1.934049 1.934049-3.663436 3.990894-5.212722 6.134721l-0.169868-0.169869-435.288875 435.288874a20.453844 20.453844 0 0 0-6.097881 9.788947l-34.691104 124.972293a20.469194 20.469194 0 0 0 19.722181 25.940812c1.825578 0 3.665483-0.24457 5.472641-0.74599l124.972293-34.69008a20.444635 20.444635 0 0 0 10.571776-7.031137l0.075725 0.075724 444.842461-444.844507-0.080841-0.080841 29.495778-29.495778c18.767436-18.766412 19.428491-48.63979 1.47663-66.591651z m-491.882823 499.275188l-61.281715-61.281715 393.453047-393.453047a44.282552 44.282552 0 0 0 3.14769 3.499707l54.261834 54.260811a44.646849 44.646849 0 0 0 3.921309 3.471055l-393.502165 393.503189z m-95.54303 34.261314l15.625886-56.292074 40.665165 40.666189-56.291051 15.625885zM900.481825 207.335139l-34.233685 34.233685c-1.627057 1.62808-3.706415 2.561335-5.704932 2.560312-1.269923 0-2.279926-0.36532-3.000334-1.085727l-54.260811-54.260812c-1.710968-1.709945-1.524726-5.705955 1.474584-8.705265l34.232662-34.233686c1.62808-1.62808 3.708462-2.561335 5.706979-2.561335 1.269923 0 2.278903 0.36532 2.99931 1.085727l54.260812 54.260812c1.710968 1.709945 1.524726 5.705955-1.474585 8.706289z" fill="#26a2ff" p-id="2377"></path></svg>