<?xml version="1.0" standalone="no"?><!DOCTYPE svg PUBLIC "-//W3C//DTD SVG 1.1//EN" "http://www.w3.org/Graphics/SVG/1.1/DTD/svg11.dtd"><svg t="1503565417871" class="icon" style="" viewBox="0 0 1024 1024" version="1.1" xmlns="http://www.w3.org/2000/svg" p-id="9049" xmlns:xlink="http://www.w3.org/1999/xlink" width="200" height="200"><defs><style type="text/css"></style></defs><path d="M853.145737 2.484626H180.082521C146.283257 2.484626 118.785258 30.631428 118.785258 65.231868v896.015974c0 34.60044 27.497998 62.7497 61.297263 62.7497h673.060759c33.799265 0 61.297263-28.151718 61.297263-62.747242V65.231868c0.002458-34.60044-27.495541-62.747242-61.294806-62.747242zM180.082521 52.963568h673.060759c5.969491 0 10.815863 5.502549 10.815863 12.2683v749.931783H169.266658V65.231868c0-6.763294 4.851287-12.2683 10.815863-12.2683z m673.063216 920.555032H180.082521c-5.964576 0-10.818321-5.505006-10.81832-12.2683v-95.610164h694.694942v95.610164c0.002458 6.765751-4.848829 12.2683-10.813406 12.2683z" p-id="9050"></path><path d="M516.6129 157.064713m-33.052156 0a33.052157 33.052157 0 1 0 66.104313 0 33.052157 33.052157 0 1 0-66.104313 0Z" p-id="9051"></path></svg>