<?xml version="1.0" standalone="no"?><!DOCTYPE svg PUBLIC "-//W3C//DTD SVG 1.1//EN" "http://www.w3.org/Graphics/SVG/1.1/DTD/svg11.dtd"><svg t="1503650239496" class="icon" style="" viewBox="0 0 1024 1024" version="1.1" xmlns="http://www.w3.org/2000/svg" p-id="9320" xmlns:xlink="http://www.w3.org/1999/xlink" width="200" height="200"><defs><style type="text/css"></style></defs><path d="M192.321702 922.051073c0 18.735713-15.797801 34.08019-34.535561 34.08019-18.542308 0-34.144658-15.344476-34.144658-34.360576 0-62.313208 25.592888-109.088534 60.909232-143.426597 49.161676-46.989197 117.840872-67.686588 158.77312-71.357188 8.293897-0.947582 15.572674-4.129041 20.696368-8.975419 3.13541-3.183506 5.091972-7.329942 6.073322-11.229762-32.123628-26.538423-47.26549-63.065338-59.410088-93.975325-6.332219-15.117302-11.68411-27.779693-14.623046-31.404244l-0.720408-0.258896-0.227174-0.26299-0.26299 0 0-0.228197c-14.362102-13.171997-34.56626-37.995359-45.043892-66.245773-10.705829-27.993564-13.415544-58.920948 2.674922-87.172385-8.520047-25.821085-12.893658-54.072523-12.893658-83.305311-0.488117-37.243229 5.352915-74.995041 17.041118-109.562325l1.469468-2.920516c16.547885-48.457642 44.783972-84.036975 80.820724-108.142999 38.4845-26.294876 86.207407-38.225603 139.808186-39.432081 19.943215-0.26299 47.26242-0.75213 73.769121 4.357238 30.42187 5.368264 59.148122 17.055444 76.712149 41.635259 36.034704-3.134387 67.470671 16.84362 92.047416 46.040592 30.194696 35.05847 51.869345 86.210477 56.473199 116.40415 3.949962 22.407336 3.949962 45.778626 0.522909 70.621431-2.449795 19.273972-6.823406 39.952944-12.665461 60.402695 18.508539 29.216415 16.093537 61.874209 5.352915 90.599438-10.739599 28.235065-30.68486 53.54859-45.307905 66.457598l-0.490164 0.490164-0.48914 0.521886 0 0.212848c-3.624551 3.411703-9.010211 16.320711-15.081487 31.191396-11.9471 30.66337-26.309202 66.455551-57.709353 92.50688 0.715291 4.63353 3.165086 9.039887 6.590092 12.697183 4.832052 4.845355 12.665461 8.027837 20.697391 8.975419 40.672328 3.671623 109.286032 24.367991 158.51013 71.357188 35.05847 34.091446 60.908208 81.114412 60.908208 143.708006 0 18.735713-15.60235 34.08019-34.109866 34.08019-18.996656 0-34.109866-15.344476-34.109866-34.360576 0-40.882106-17.041118-71.323419-40.149419-93.748151-36.299741-34.811854-86.960561-50.39783-117.152187-52.601009-24.354688-2.430352-46.780443-12.662391-63.326281-29.214369-18.510586-18.000979-44.787042-85.962837-10.447956-107.619066 24.091698-14.398942 36.756135-45.308929 46.744627-71.357188 9.497305-23.14207 17.267269-43.103704 32.869618-57.223283l0 0.473791 0.26299-0.473791c8.486278-7.570419 21.148669-22.895453 27.517727-39.950897 4.863774-12.667507 5.842055-25.332968-2.447748-34.095539l0.228197 0c-8.979512-9.974166-12.174274-27.993564-8.064676-40.428781 6.855128-21.674649 11.719926-41.895179 13.938454-61.367673 2.187829-18.262946 2.645247-35.304064-0.25992-52.111868-2.905166-20.447704-18.509563-55.997362-40.705074-81.820494-11.654434-13.871939-24.284079-23.840988-35.05847-21.900799-11.915377 1.680269-23.568788 0-34.341133-4.878101-9.236362-4.638647-17.493419-11.461029-23.828708-20.466124l-2.219551-2.433422c-5.088902-7.768941-18.277272-12.648065-33.620725-15.326057-20.172435-3.671623-43.086307-3.168156-60.09161-2.677992-40.708144 0.474814-76.024487 8.747221-103.541191 27.76332-23.862477 15.795754-42.337247 39.918151-54.284347 73.770144l-0.981351 2.676969c-9.009188 27.027563-14.101159 56.961316-13.642718 86.208431l0 0c0.51984 26.048259 4.63353 51.14996 13.154601 72.091922 3.885494 6.557346 5.354961 14.851243 3.687996 22.390963-3.687996 22.410406-21.707394 23.38971-10.968819 52.606125 6.334265 16.057721 18.509563 31.416524 27.02961 39.46278l0.945535 1.433652 0.490164 0c14.883989 13.889335 22.913872 33.641191 31.890314 56.277748 10.738575 26.048259 23.405059 57.449433 47.264467 72.317049 10.707876 5.340635 18.019399 16.550954 18.019399 30.210046 0 29.200042-4.860704 54.527894-26.797319 76.449159-16.059767 16.551978-38.97671 26.784016-63.786769 29.214369-29.961382 2.203178-80.363306 17.790178-116.40108 52.601009C208.905402 850.446245 192.321702 880.887558 192.321702 922.051073L192.321702 922.051073z" p-id="9321" fill="#26a2ff"></path></svg>