<?xml version="1.0" standalone="no"?><!DOCTYPE svg PUBLIC "-//W3C//DTD SVG 1.1//EN" "http://www.w3.org/Graphics/SVG/1.1/DTD/svg11.dtd"><svg t="1506651663784" class="icon" style="" viewBox="0 0 1024 1024" version="1.1" xmlns="http://www.w3.org/2000/svg" p-id="11133" xmlns:xlink="http://www.w3.org/1999/xlink" width="200" height="200"><defs><style type="text/css"></style></defs><path d="M264.887 945.077c-3.824 0.001-7.488-0.6-10.892-1.786-25.861-8.963-27.823-42.674-28.468-53.751-1.175-20.184 0.754-45.109 2.62-69.213 1.459-18.852 2.968-38.344 2.81-53.977-0.183-18.097-2.542-24.165-3.365-25.737-104.807-71.16-164.874-176.355-164.874-288.791 0-50.865 12.094-100.166 35.947-146.533 22.873-44.463 55.534-84.323 97.075-118.472C280.378 117.24 392.687 78.923 511.978 78.923c119.294 0 231.61 38.317 316.26 107.894 41.547 34.149 74.213 74.009 97.091 118.472 23.857 46.367 35.954 95.669 35.954 146.534 0 50.86-12.097 100.157-35.955 146.521-22.877 44.46-55.543 84.317-97.09 118.465-84.651 69.576-196.968 107.893-316.26 107.893-21.765 0-43.474-1.281-64.535-3.81-1.491 0.24-8.762 2.095-28.097 16.358-14.972 11.046-32.603 26.093-49.652 40.645-48.803 41.651-79.974 67.179-104.807 67.182z m247.091-826.154c-225.667 0-409.26 149.338-409.26 332.899 0 99.253 54.003 192.654 148.163 256.254 24.781 16.707 21.413 60.232 17.147 115.338-1.521 19.654-3.095 39.979-2.834 56.355 0.221 13.89 1.744 20.976 2.876 24.362 3.909-1.514 11.643-5.43 25.412-15.563 15.18-11.173 33.005-26.387 50.243-41.099 48.385-41.295 79.283-66.604 103.788-66.604 1.392 0 2.778 0.081 4.12 0.242 19.688 2.386 39.979 3.594 60.344 3.594 225.691 0 409.305-149.329 409.305-332.879 0-183.561-183.613-332.899-409.304-332.899z" fill="#1296db" p-id="11134"></path><path d="M343.379 442.608c0 25.699-20.041 46.521-44.734 46.521-24.646 0-44.688-20.822-44.688-46.521 0-25.768 20.041-46.567 44.688-46.567 24.693 0 44.734 20.8 44.734 46.567zM556.689 442.608c0 25.699-20.019 46.521-44.712 46.521-24.691 0-44.688-20.822-44.688-46.521 0-25.768 19.997-46.567 44.688-46.567 24.694 0 44.712 20.8 44.712 46.567zM775.277 442.608c0 25.699-19.994 46.521-44.688 46.521s-44.735-20.822-44.735-46.521c0-25.768 20.042-46.567 44.735-46.567s44.688 20.8 44.688 46.567z" fill="#1296db" p-id="11135"></path></svg>