<?xml version="1.0" standalone="no"?><!DOCTYPE svg PUBLIC "-//W3C//DTD SVG 1.1//EN" "http://www.w3.org/Graphics/SVG/1.1/DTD/svg11.dtd"><svg t="1504250324274" class="icon" style="" viewBox="0 0 1024 1024" version="1.1" xmlns="http://www.w3.org/2000/svg" p-id="5838" xmlns:xlink="http://www.w3.org/1999/xlink" width="200" height="200"><defs><style type="text/css"></style></defs><path d="M394.614634 253.752195a23.83922 23.83922 0 0 1 23.83922-23.839219H810.458537a23.83922 23.83922 0 1 1 0 47.678439H418.453854A23.83922 23.83922 0 0 1 394.614634 253.752195z m23.83922 140.362927h254.251707a23.83922 23.83922 0 0 0 0-47.665951h-254.251707a23.83922 23.83922 0 0 0 0 47.665951zM810.458537 645.694439H418.453854a23.83922 23.83922 0 0 0 0 47.665951H810.458537a23.83922 23.83922 0 1 0 0-47.665951z m-137.765464 116.523707H418.453854a23.83922 23.83922 0 0 0 0 47.678439h254.251707a23.83922 23.83922 0 1 0 0-47.678439zM246.996293 405.853659h37.838048V214.115902h-30.982243c-0.874146 9.990244-0.11239 18.069854-7.942244 24.138927s-24.276293 9.091122-39.136781 9.091122h-5.394732v26.51161h45.617952V405.853659z m-13.961366 367.278829l47.516097-35.340488q24.563512-16.883512 32.293464-31.306927a64.774244 64.774244 0 0 0 7.729951-31.057171q0-27.173463-18.14478-43.844682T254.75122 614.899512q-28.509659 0-45.605464 16.883512t-17.133268 50.900293h36.651707q0-20.317659 7.192976-28.097561t19.718244-7.779902q12.487805 0 19.843122 7.90478a27.835317 27.835317 0 0 1 7.317853 19.630829 35.590244 35.590244 0 0 1-6.755902 21.229269q-6.780878 9.50322-37.77561 32.043707C220.497171 740.526829 197.307317 756.298927 190.17678 767.725268l-0.362146 38.887025h131.121951V773.12h-87.901658z" fill="#26a2ff" p-id="5839"></path><path d="M930.341463 1024H93.658537a93.758439 93.758439 0 0 1-93.658537-93.658537V93.658537A93.770927 93.770927 0 0 1 93.658537 0h836.682926a93.758439 93.758439 0 0 1 93.658537 93.658537v836.682926a93.758439 93.758439 0 0 1-93.658537 93.658537zM93.658537 37.463415a56.257561 56.257561 0 0 0-56.195122 56.195122v836.682926a56.257561 56.257561 0 0 0 56.195122 56.195122h836.682926a56.257561 56.257561 0 0 0 56.195122-56.195122V93.658537a56.257561 56.257561 0 0 0-56.195122-56.195122z" fill="#26a2ff" p-id="5840"></path></svg>