<?xml version="1.0" standalone="no"?><!DOCTYPE svg PUBLIC "-//W3C//DTD SVG 1.1//EN" "http://www.w3.org/Graphics/SVG/1.1/DTD/svg11.dtd"><svg t="1505305109362" class="icon" style="" viewBox="0 0 1024 1024" version="1.1" xmlns="http://www.w3.org/2000/svg" p-id="3035" xmlns:xlink="http://www.w3.org/1999/xlink" width="200" height="200"><defs><style type="text/css"></style></defs><path d="M624.77039 936.682305c-88.871073 0-165.389818-35.800367-246.368131-74.002434l-20.817118-9.607822c-126.615723-59.132772-218.003106-107.972107-218.917941-108.314914-53.414537-24.933879-76.861552-89.672322-51.583843-144.344503 17.61417-37.972846 56.388265-62.793138 98.021478-62.793138 16.012695 0 31.453363 3.545756 45.979194 10.29446l100.19498 49.52495c-23.333428-63.479777-66.796312-177.055508-102.824877-239.963256-30.423917-53.299927-59.7048-73.086575-85.782735-90.357938-17.156752-11.666714-33.741475-22.532179-46.323025-41.061184-16.241916-24.362874-20.473287-53.528124-11.666714-80.064501 8.349155-25.163099 27.679409-45.064358 52.613288-54.214762a76.522838 76.522838 0 0 1 25.735128-4.460592c52.04126 0 110.373807 47.237861 149.83454 86.812182 21.846564 21.846564 44.836161 53.986565 65.194838 85.210707 10.17985-32.025391 37.172621-56.616462 67.711148-67.711148 10.29446-3.660366 20.930705-5.719258 31.91078-5.719258 27.79402 0 53.642734 12.352329 70.914096 32.940226 10.865465-18.529005 27.79402-32.482809 48.152697-39.803541 10.29446-3.660366 20.930705-5.719258 31.911804-5.719258 36.257785 0 69.312622 21.274536 84.181261 53.986565 8.463766-6.862291 18.071587-12.352329 26.420742-15.440668 9.150404-3.316535 18.643616-5.03262 28.251438-5.032619 34.770921 0 65.537645 20.587897 76.746941 51.583842 4.689812 12.69616 112.547309 310.762743 102.139262 402.951375-11.094686 95.733365-34.999119 193.869453-192.382589 251.057942-44.493354 16.242939-86.926792 24.249287-129.246642 24.249287zM184.949292 577.424058c-26.764574 0-50.669006 15.09786-61.878302 39.803542-16.127306 34.656311-1.486864 75.832106 33.169447 91.844801 1.944282 1.029446 92.416829 49.411363 217.888496 107.972107l20.817118 9.607822c80.407308 37.744649 149.71993 70.227458 229.555209 70.227458 37.401842 0 75.602885-7.091512 115.978455-21.846565C876.817869 825.393663 896.604518 746.930637 906.898978 656.68731c8.006348-68.740594-69.427232-300.926724-100.080369-384.879788-5.375427-14.755052-21.502733-25.163099-39.45971-25.163099-5.03262 0-10.17985 0.686638-14.755052 2.51631-8.463766 3.202948-19.787672 12.352329-25.04849 18.186198l17.49956 48.152696c3.660366 10.29446-1.486864 21.846564-11.781324 25.505907-10.29446 3.660366-21.846564-1.486864-25.505907-11.781324l-29.509081-80.979336c-7.54893-20.930705-27.679409-34.999119-49.982368-34.999119-6.290263 0-12.238742 1.144056-18.071588 3.316536-13.381775 4.803399-23.904433 14.525831-29.966498 27.336602-6.062066 12.81077-6.519484 27.107381-1.716085 40.603766l11.322883 31.339776c3.660366 10.29446-1.486864 21.846564-11.781324 25.505907-10.29446 3.660366-21.846564-1.486864-25.505907-11.781324l-25.048489-68.625984c-7.66354-20.702508-27.79402-34.885532-50.096979-34.885532-6.290263 0-12.238742 1.144056-18.071587 3.316536-25.048489 9.150404-56.960293 37.744649-41.97602 78.920444l18.186198 49.982368c3.660366 9.950629-1.029446 20.817118-10.637268 25.048489-9.493212 4.345981-20.817118 0.457418-25.620518-9.035794-0.686638-1.144056-64.280002-121.125685-114.49159-171.337273-55.129598-55.129598-106.142435-83.266425-133.821845-73.201186-13.610996 5.03262-24.019043 15.440667-28.594245 29.166273-4.803399 14.755052-2.173502 31.339776 7.091512 45.40819 8.006348 11.781324 20.13048 20.13048 35.113729 29.966498C191.240579 252.249071 227.612974 276.611945 262.84029 338.031806c53.414537 93.331665 119.524211 284.914028 122.497939 292.805766 2.63092 7.54893 0.457418 16.127306-5.719259 21.274536-5.947456 5.260817-14.755052 6.404873-21.960151 2.859118l-143.772474-70.914097c-8.806573-4.460592-18.757203-6.633071-28.937053-6.633071z" fill="#26a2ff" p-id="3036"></path></svg>