<?xml version="1.0" standalone="no"?><!DOCTYPE svg PUBLIC "-//W3C//DTD SVG 1.1//EN" "http://www.w3.org/Graphics/SVG/1.1/DTD/svg11.dtd"><svg t="1505305204738" class="icon" style="" viewBox="0 0 1024 1024" version="1.1" xmlns="http://www.w3.org/2000/svg" p-id="5953" xmlns:xlink="http://www.w3.org/1999/xlink" width="200" height="200"><defs><style type="text/css"></style></defs><path d="M53.196885 865.006853c21.086624 63.259873 109.650446 158.993147 189.779618 158.993147h5.271656c123.567618-6.325987 290.362816-121.880688 446.403835-309.340777l57.566484-69.164128C909.524695 457.613273 991.12993 274.581375 972.151968 155.441948c-13.49544-84.346497-139.17172-154.986688-210.866242-154.986688a51.240497 51.240497 0 0 0-52.71656 28.04521C667.661115 100.194993 617.685815 225.238674 617.685815 269.942318v3.162993l1.054331 2.952128a90.88335 90.88335 0 0 0 46.812306 44.703643c23.406153 13.073707 36.690726 21.086624 38.16679 46.390573 0 7.591185-6.115121 42.173248-109.017847 168.692994l-44.071045 52.716561c-103.113592 121.037223-135.586994 134.11093-143.178178 135.165261-24.882217 3.37386-36.690726-7.380318-54.403491-26.990879a92.148548 92.148548 0 0 0-54.614356-35.425529h-6.325988c-44.91451 9.488981-160.047478 83.081299-225.205146 137.906523C56.570745 805.120841 40.123178 822.833605 53.196885 865.006853z m34.79293-37.745057c71.694522-59.886013 172.488586-120.615491 207.703248-130.526204a68.109796 68.109796 0 0 1 30.153873 23.617019 90.039885 90.039885 0 0 0 86.244293 38.16679c21.086624-2.741261 60.096879-22.140955 173.753784-156.673618l11.597643-13.706306 8.856382-10.754178 11.175911-13.49544c111.759108-136.008726 122.935019-178.181975 121.669822-197.792535-2.952127-44.703643-33.738599-61.994675-56.090421-74.435783a68.109796 68.109796 0 0 1-29.73214-23.827886c2.741261-35.636395 42.173248-144.021643 87.509491-223.30735 3.37386-7.591185 15.393236-8.223783 21.086624-8.223784 57.144752 0 165.53 61.994675 175.65158 126.519746 13.49544 84.346497-34.79293 250.29823-210.866242 462.007936l-58.831682 67.266332C491.16607 903.806242 335.125051 984.14628 247.404694 988.574471h-3.37386c-63.259873 0-139.593452-81.39437-156.673618-134.532662-3.37386-10.754178-5.06079-23.617019 0-27.412612z" fill="#26a2ff" p-id="5954"></path></svg>