<?xml version="1.0" standalone="no"?><!DOCTYPE svg PUBLIC "-//W3C//DTD SVG 1.1//EN" "http://www.w3.org/Graphics/SVG/1.1/DTD/svg11.dtd"><svg t="1504250020736" class="icon" style="" viewBox="0 0 1024 1024" version="1.1" xmlns="http://www.w3.org/2000/svg" p-id="3654" xmlns:xlink="http://www.w3.org/1999/xlink" width="200" height="200"><defs><style type="text/css"></style></defs><path d="M64.303027 184.715979l24.697495 0 0 654.56702-24.697495 0 0-654.56702Z" p-id="3655" fill="#26a2ff"></path><path d="M138.406768 184.715979l123.498732 0 0 654.56702-123.498732 0 0-654.56702Z" p-id="3656" fill="#26a2ff"></path><path d="M298.956348 184.715979l49.39499 0 0 654.56702-49.39499 0 0-654.56702Z" p-id="3657" fill="#26a2ff"></path><path d="M397.769864 184.715979l98.788957 0 0 654.56702-98.788957 0 0-654.56702Z" p-id="3658" fill="#26a2ff"></path><path d="M558.308187 184.715979l24.708751 0 0 654.56702-24.708751 0 0-654.56702Z" p-id="3659" fill="#26a2ff"></path><path d="M669.4638 184.715979l49.406247 0 0 654.56702-49.406247 0 0-654.56702Z" p-id="3660" fill="#26a2ff"></path><path d="M755.92294 184.715979l123.498732 0 0 654.56702-123.498732 0 0-654.56702Z" p-id="3661" fill="#26a2ff"></path><path d="M922.644079 184.715979l37.051871 0 0 654.56702-37.051871 0 0-654.56702Z" p-id="3662" fill="#26a2ff"></path></svg>