<?xml version="1.0" standalone="no"?><!DOCTYPE svg PUBLIC "-//W3C//DTD SVG 1.1//EN" "http://www.w3.org/Graphics/SVG/1.1/DTD/svg11.dtd"><svg t="1503650189392" class="icon" style="" viewBox="0 0 1024 1024" version="1.1" xmlns="http://www.w3.org/2000/svg" p-id="8593" xmlns:xlink="http://www.w3.org/1999/xlink" width="200" height="200"><defs><style type="text/css"></style></defs><path d="M89.499895 425.112094c0.054235 1.013073 0.075725 2.009773 0.091074 2.987031 0.064468 2.450818 0.132006 5.250584 0.617054 8.185426l1.468444 9.475815c0.328481 1.838881 0.582261 3.606131 0.849344 5.326309 0.567935 3.846608 1.14508 7.821129 2.279926 11.602246l6.216585 21.538549c1.911536 6.54609 8.139378 10.879792 14.94641 10.408047 3.595898-0.243547 6.825452-1.821485 9.240455-4.222161 2.155083-2.160199 3.64911-4.986571 4.090155-8.18031l3.219321-21.883403c0.23536-1.735527 0.981351-4.281513 1.755993-6.980995 0.561795-1.867534 1.082658-3.771907 1.512447-5.406127l2.281973-8.159844c0.284479-1.113357 0.815575-2.185782 1.297552-3.300162 0.446162-1.023306 0.896416-2.080382 1.305739-3.119037 0.769526-1.750877 1.497097-3.486404 2.202155-5.263887 1.416256-3.499707 2.7486-6.779404 4.77884-9.998725 0.880043-1.49198 1.708921-2.976798 2.545986-4.489244 2.119267-3.802606 4.134157-7.380084 6.537903-10.356882 0.14224-0.173962 0.279363-0.375553 0.446162-0.573051l5.39794-7.462972c1.103124-1.390673 2.341325-2.707668 3.543709-4.049223 0.859577-0.940418 1.720178-1.888 2.813069-3.113921 3.183506-3.846608 6.933923-7.187703 10.540054-10.467399l1.932002-1.740644c2.689249-2.481518 5.776563-4.825912 9.027607-7.299243 1.339508-0.992607 2.647293-1.984191 3.926426-2.963495 1.655709-1.062192 3.235694-2.124384 4.799306-3.178389 2.956332-1.994424 5.502317-3.709485 8.426927-5.230118l6.408967-3.65218 6.470365-3.171226c2.261507-1.173732 4.479011-2.065032 6.540973-2.89084 1.209548-0.505513 2.413979-1.004887 3.538593-1.486864 1.127683-0.393973 2.217505-0.816598 3.264347-1.204431 1.378393-0.497327 2.581802-0.992607 4.206812-1.412163l1.750877-0.396019c1.909489 3.088338 4.126994 6.009877 6.815219 8.701173l125.646652 125.633349 29.667693 45.305859 82.892919-82.898035-43.874253-28.377304L313.895595 284.324604c-1.585101-1.579985-3.276626-2.981914-5.01727-4.303003 1.478677-2.613524 2.934842-5.305843 4.291746-8.095375 26.829042 5.16258 75.861782-47.083341 117.51853-88.713484L309.349045 61.848627c-54.271044 54.265928-93.89346 90.687442-88.744183 117.523647-12.397355 6.058996-23.469528 13.459546-31.320333 21.334911l-17.10354 17.101493c-11.102872 11.115152-17.788132 24.934902-20.168342 39.327704-1.655709 1.888-3.354398 3.882424-5.030573 6.022157l-6.364965 8.009418c-0.186242 0.186242-0.727571 0.960885-0.881067 1.178849l-5.76633 8.084119c-3.618411 4.815679-6.766101 10.047844-9.82067 15.098883-1.12666 1.880837-2.281973 3.761674-3.460822 5.631254-0.184195 0.319272-0.355087 0.632403-0.517793 0.960885l-2.569522 4.828982c-3.112897 5.815449-6.328126 11.835559-9.076726 18.4717l-0.441045 1.038656c-3.245927 7.718799-6.608511 15.705704-8.975419 24.165376l-1.124614 3.660366c-0.927115 3.01773-1.877767 6.02318-2.7486 9.623171l-2.349511 11.672854c-1.76111 7.299243-2.362814 14.503319-2.865257 20.886703l-0.343831 4.191462c-0.870834 6.612605-0.627287 12.848633-0.378623 18.365276C89.379145 420.868443 89.453846 422.677649 89.499895 425.112094" p-id="8594" fill="#26a2ff"></path><path d="M653.144112 555.735084 545.465694 663.417595 781.512758 899.459542c29.724998 29.735232 77.95342 29.735232 107.692744 0 29.714765-29.708626 29.714765-77.958536 0-107.672278L653.144112 555.735084z" p-id="8595" fill="#26a2ff"></path><path d="M411.701155 813.432237l1.00284-10.510378c0-19.034519-3.903913-37.054941-10.100032-53.905724l320.029804-320.045153c16.8559 6.226818 34.866089 10.120498 53.911864 10.120498l10.487865-1.033539c81.167624-5.506411 145.429207-72.356958 145.429207-154.894789 0-23.9996-5.841032-46.517453-15.58086-66.842361L813.271066 319.92952c-5.427616 5.448082-11.856026 9.178033-18.663058 11.69332-18.428721 6.79987-39.951921 3.108804-54.82363-11.69332-10.099009-10.133801-15.228843-23.463388-15.228843-36.765345 0-6.141884 1.36816-12.20088 3.554966-18.041912 2.586918-6.804986 6.247284-13.247722 11.717879-18.705014l103.551424-103.592356c-20.299325-9.714246-42.834574-15.570627-66.835198-15.570627-82.537831 0-149.382239 64.270792-154.872277 145.411811l-1.062192 10.499122c0 19.037589 3.90596 37.063127 10.102079 53.915957L310.680367 657.107889c-16.842597-6.202259-34.858926-10.096962-53.895491-10.096962l-10.504238 1.050935c-81.130785 5.491061-145.429207 72.324212-145.429207 154.86102 0 24.00574 5.835915 46.540989 15.594163 66.855664l103.582123-103.602589c5.436826-5.426593 11.930727-9.18315 18.689664-11.713786 18.407232-6.812149 39.926338-3.163039 54.812373 11.713786 10.149151 10.100032 15.21861 23.459295 15.21861 36.746926 0 6.144954-1.319042 12.239765-3.494591 18.021445-2.589988 6.792707-6.235005 13.298887-11.724019 18.739806l-103.609753 103.58724c20.367887 9.739828 42.85504 15.581883 66.865897 15.581883C339.312474 958.852234 406.163021 894.53744 411.701155 813.432237" p-id="8596" fill="#26a2ff"></path></svg>