<?xml version="1.0" standalone="no"?><!DOCTYPE svg PUBLIC "-//W3C//DTD SVG 1.1//EN" "http://www.w3.org/Graphics/SVG/1.1/DTD/svg11.dtd"><svg t="1503565458697" class="icon" style="" viewBox="0 0 1024 1024" version="1.1" xmlns="http://www.w3.org/2000/svg" p-id="9750" xmlns:xlink="http://www.w3.org/1999/xlink" width="200" height="200"><defs><style type="text/css"></style></defs><path d="M705.584 469.053l-229.554 230.418-98.629-107.357c-11.796-12.048-31.146-18.95-43.213-7.305-12.106 11.697-5.638 30.942 6.132 42.927l113.614 116.15c0.057 0.090 0.181 0.090 0.245 0.186 0.064 0.059 0.089 0.18 0.153 0.238 1.922 1.89 4.308 3.044 6.572 4.317 1.195 0.644 2.14 1.699 3.362 2.189 3.697 1.506 7.643 2.267 11.545 2.267 3.885 0 7.773-0.753 11.431-2.208 1.201-0.493 2.114-1.456 3.245-2.068 2.289-1.269 4.681-2.395 6.629-4.31 0.064-0.064 0.096-0.186 0.187-0.242 0.057-0.090 0.148-0.121 0.243-0.18l237.979-239.007c11.885-11.959 18.507-24.475 6.526-36.255-11.985-11.807-24.617-11.691-36.466 0.242z" p-id="9751"></path><path d="M881.934 143.433h-174.466v-122.767c0-11.94-9.735-21.621-21.77-21.621-12.032 0-21.77 9.681-21.77 21.621v122.767h-314.449v-122.767c0-11.94-9.735-21.621-21.77-21.621-12.032 0-21.77 9.681-21.77 21.621v122.767h-161.285c-78.803 0-142.918 63.68-142.918 141.949v594.826c0 78.27 64.114 141.949 142.918 141.949h737.276c78.803 0 142.918-63.68 142.918-141.949v-594.826c0-78.27-64.114-141.949-142.918-141.949zM981.315 880.208c0 54.432-44.578 98.708-99.381 98.708h-737.276c-54.803 0-99.381-44.275-99.381-98.708v-594.825c0-54.432 44.578-98.708 99.381-98.708h161.285v109.813c0 11.94 9.735 21.621 21.77 21.621 12.032 0 21.77-9.681 21.77-21.621v-109.813h314.45v109.813c0 11.94 9.735 21.621 21.77 21.621 12.032 0 21.77-9.681 21.77-21.621v-109.813h174.466c54.803 0 99.381 44.275 99.381 98.708v594.825z" p-id="9752"></path></svg>