<?xml version="1.0" standalone="no"?><!DOCTYPE svg PUBLIC "-//W3C//DTD SVG 1.1//EN" "http://www.w3.org/Graphics/SVG/1.1/DTD/svg11.dtd"><svg t="1504234446226" class="icon" style="" viewBox="0 0 1024 1024" version="1.1" xmlns="http://www.w3.org/2000/svg" p-id="2930" xmlns:xlink="http://www.w3.org/1999/xlink" width="200" height="200"><defs><style type="text/css"></style></defs><path d="M509.536 15.936c-273.504 0-495.984 222.48-495.984 496 0 273.488 222.48 496.016 495.984 496.016 273.52 0 496-222.528 496-496.016C1005.536 238.416 783.04 15.936 509.536 15.936M863.456 793.504C861.952 788.656 859.664 784 855.84 780.16l-29.104-29.12c-6.32-6.288-14.592-9.456-22.864-9.456-8.288 0-16.528 3.168-22.88 9.456-12.608 12.656-12.608 33.104 0 45.744l29.104 29.104c4.752 4.752 10.752 7.168 16.928 8.304-81.744 80.592-193.872 130.496-317.504 130.496-123.328 0-235.2-49.728-316.928-129.952 7.168-0.752 14.176-3.408 19.632-8.88l29.12-29.072c6.304-6.288 9.44-14.592 9.44-22.864 0-8.272-3.136-16.544-9.44-22.88-12.64-12.624-33.104-12.624-45.728 0l-29.104 29.12c-4.768 4.752-7.136 10.688-8.304 16.832-56.928-70.032-93.008-157.344-99.776-252.72l63.008 0c17.872 0 32.352-14.48 32.352-32.336 0-17.888-14.48-32.336-32.352-32.336L58.432 479.6c7.12-100.48 47.024-191.904 109.328-263.696l27.856 27.824c6.304 6.32 14.576 9.488 22.88 9.488 8.256 0 16.512-3.184 22.864-9.488 12.64-12.624 12.64-33.104 0-45.728l-27.888-27.824c71.84-62.288 163.216-102.224 263.728-109.344l0 63.04c0 17.856 14.448 32.352 32.336 32.352s32.368-14.496 32.368-32.352l0-63.04c223.744 15.936 402.816 194.976 418.72 418.784l-63.008 0c-17.856 0-32.336 14.448-32.336 32.336 0 17.872 14.464 32.336 32.336 32.336l63.008 0C954.016 638.096 918.816 724.048 863.456 793.504" p-id="2931" fill="#26a2ff"></path><path d="M756.656 260.688c-13.76-11.392-34.176-9.568-45.6 4.128L551.008 456.912c-12.64-6.016-26.608-9.648-41.472-9.648-53.488 0-97.024 43.52-97.024 97.024 0 53.456 43.552 97.008 97.024 97.008 53.472 0 97.024-43.552 97.024-97.008 0-15.152-3.808-29.312-9.984-42.064 0.752-0.72 1.792-1.056 2.464-1.904l161.696-194.048C772.224 292.544 770.336 272.128 756.656 260.688M541.904 576.608l-64.72 0 0-64.656 64.72 0L541.904 576.608z" p-id="2932" fill="#26a2ff"></path></svg>