<?xml version="1.0" standalone="no"?><!DOCTYPE svg PUBLIC "-//W3C//DTD SVG 1.1//EN" "http://www.w3.org/Graphics/SVG/1.1/DTD/svg11.dtd"><svg t="1503650108603" class="icon" style="" viewBox="0 0 1024 1024" version="1.1" xmlns="http://www.w3.org/2000/svg" p-id="7074" xmlns:xlink="http://www.w3.org/1999/xlink" width="200" height="200"><defs><style type="text/css"></style></defs><path d="M512 960C264.96 960 64 759.04 64 512S264.96 64 512 64s448 200.96 448 448-200.96 448-448 448z m0-831.712c-211.584 0-383.712 172.128-383.712 383.712 0 211.544 172.128 383.712 383.712 383.712 211.544 0 383.72-172.16 383.72-383.712 0-211.584-172.176-383.712-383.72-383.712z" fill="#26a2ff" p-id="7075"></path><path d="M543 515.104c0 15.408-13.88 27.896-31 27.896-17.12 0-31-12.496-31-27.896v-241.2c0-15.4 13.88-27.896 31-27.896 17.12 0 31 12.496 31 27.896v241.2z" fill="#26a2ff" p-id="7076"></path><path d="M511.8 543a30.992 30.992 0 1 1 0-62H694.8a31 31 0 0 1 0 62H511.8z" fill="#26a2ff" p-id="7077"></path></svg>