<?xml version="1.0" standalone="no"?><!DOCTYPE svg PUBLIC "-//W3C//DTD SVG 1.1//EN" "http://www.w3.org/Graphics/SVG/1.1/DTD/svg11.dtd"><svg t="1504076369867" class="icon" style="" viewBox="0 0 1024 1024" version="1.1" xmlns="http://www.w3.org/2000/svg" p-id="3807" xmlns:xlink="http://www.w3.org/1999/xlink" width="200" height="200"><defs><style type="text/css"></style></defs><path d="M437.248 452.928H84.416c-11.328 0-20.416-9.152-20.416-20.416V85.056c0-11.264 9.088-20.416 20.416-20.416h352.832c11.264 0 20.416 9.216 20.416 20.416v347.456c0 11.264-9.152 20.416-20.416 20.416z m-332.352-40.896h311.936V105.6H104.896v306.432zM437.248 927.04H84.416C73.088 927.04 64 917.888 64 906.624V559.36c0-11.392 9.088-20.48 20.416-20.48h352.832c11.264 0 20.416 9.152 20.416 20.48v347.264c0 11.264-9.152 20.416-20.416 20.416z m-332.352-40.896h311.936v-306.24H104.896v306.24zM905.088 452.928H552.32c-11.392 0-20.48-9.216-20.48-20.416V85.056c0-11.264 9.152-20.416 20.48-20.416h352.768c11.328 0 20.416 9.216 20.416 20.416v347.456c0 11.264-9.152 20.416-20.416 20.416z m-332.352-40.896h311.808V105.6H572.736v306.432zM716.928 929.472c-112.512 0-204.032-91.584-204.032-203.904 0-112.64 91.52-204.032 204.032-204.032 112.384 0 203.904 91.456 203.904 204.032 0 112.384-91.52 203.904-203.904 203.904z m0-366.976c-89.984 0-163.072 73.28-163.072 163.136 0 89.6 73.088 162.88 163.072 162.88 89.728 0 162.944-73.28 162.944-162.88 0-89.856-73.216-163.136-162.944-163.136z" p-id="3808" fill="#26a2ff"></path><path d="M939.456 959.36a20.758 20.758 0 0 1-14.08-5.504l-90.752-85.952c-8.192-7.68-8.576-20.8-0.896-28.864 7.872-8.32 20.864-8.704 28.928-0.832l90.88 85.76c8.256 7.872 8.576 20.928 0.896 29.12-3.968 4.16-9.344 6.272-14.976 6.272z" p-id="3809" fill="#26a2ff"></path></svg>